<svg xmlns="http://www.w3.org/2000/svg" viewBox="0 0 80 80">
  <defs>
    <linearGradient id="bark" x1="0%" y1="0%" x2="100%" y2="100%">
      <stop offset="0%" stop-color="#92400e"/>
      <stop offset="100%" stop-color="#3d1a00"/>
    </linearGradient>
    <radialGradient id="canopy" cx="50%" cy="50%" r="55%">
      <stop offset="0%" stop-color="#15803d"/>
      <stop offset="100%" stop-color="#052e16"/>
    </radialGradient>
  </defs>
  <!-- Root feet (wide spreading) -->
  <path d="M24 72 Q14 74 8 78" stroke="#3d1a00" stroke-width="6" fill="none" stroke-linecap="round"/>
  <path d="M28 74 Q22 78 18 80" stroke="#3d1a00" stroke-width="5" fill="none" stroke-linecap="round"/>
  <path d="M40 74 Q38 78 36 80" stroke="#3d1a00" stroke-width="5" fill="none" stroke-linecap="round"/>
  <path d="M40 74 Q42 78 44 80" stroke="#3d1a00" stroke-width="5" fill="none" stroke-linecap="round"/>
  <path d="M52 74 Q58 78 62 80" stroke="#3d1a00" stroke-width="5" fill="none" stroke-linecap="round"/>
  <path d="M56 72 Q66 74 72 78" stroke="#3d1a00" stroke-width="6" fill="none" stroke-linecap="round"/>
  <!-- Massive trunk body (baobab is very wide/fat) -->
  <ellipse cx="40" cy="56" rx="26" ry="22" fill="url(#bark)"/>
  <!-- Bark texture lines -->
  <line x1="30" y1="42" x2="28" y2="70" stroke="#3d1a00" stroke-width="1.5" opacity="0.5"/>
  <line x1="36" y1="40" x2="35" y2="72" stroke="#3d1a00" stroke-width="1.5" opacity="0.5"/>
  <line x1="40" y1="40" x2="40" y2="72" stroke="#3d1a00" stroke-width="1.5" opacity="0.5"/>
  <line x1="44" y1="40" x2="45" y2="72" stroke="#3d1a00" stroke-width="1.5" opacity="0.5"/>
  <line x1="50" y1="42" x2="52" y2="70" stroke="#3d1a00" stroke-width="1.5" opacity="0.5"/>
  <!-- Branch arms (twisted, reaching) -->
  <path d="M16 48 Q6 40 2 30 Q8 28 12 36 Q12 26 16 22 Q20 28 16 38 Q20 28 24 24 Q26 32 18 40 Z" fill="url(#bark)"/>
  <path d="M64 48 Q74 40 78 30 Q72 28 68 36 Q68 26 64 22 Q60 28 64 38 Q60 28 56 24 Q54 32 62 40 Z" fill="url(#bark)"/>
  <!-- Smaller branches -->
  <path d="M10 30 Q4 24 2 18" stroke="#3d1a00" stroke-width="3" fill="none" stroke-linecap="round"/>
  <path d="M8 32 Q2 30 0 26" stroke="#3d1a00" stroke-width="2" fill="none" stroke-linecap="round"/>
  <path d="M70 30 Q76 24 78 18" stroke="#3d1a00" stroke-width="3" fill="none" stroke-linecap="round"/>
  <path d="M72 32 Q78 30 80 26" stroke="#3d1a00" stroke-width="2" fill="none" stroke-linecap="round"/>
  <!-- Trunk merging into head -->
  <ellipse cx="40" cy="38" rx="20" ry="18" fill="url(#bark)"/>
  <!-- Hollow face carved into trunk -->
  <!-- Eye sockets (hollow, shadowed) -->
  <ellipse cx="32" cy="34" rx="6" ry="5" fill="#1c0a00"/>
  <ellipse cx="48" cy="34" rx="6" ry="5" fill="#1c0a00"/>
  <!-- Ancient ember eyes (amber glow) -->
  <ellipse cx="32" cy="34" rx="4" ry="3.5" fill="#92400e"/>
  <ellipse cx="48" cy="34" rx="4" ry="3.5" fill="#92400e"/>
  <ellipse cx="32" cy="34" rx="2.5" ry="2.5" fill="#d97706"/>
  <ellipse cx="48" cy="34" rx="2.5" ry="2.5" fill="#d97706"/>
  <circle cx="33" cy="33" r="1" fill="#fde68a" opacity="0.9"/>
  <circle cx="49" cy="33" r="1" fill="#fde68a" opacity="0.9"/>
  <!-- Bark brow ridge (knot-like) -->
  <path d="M26 30 Q32 27 38 30" stroke="#3d1a00" stroke-width="2" fill="none"/>
  <path d="M42 30 Q48 27 54 30" stroke="#3d1a00" stroke-width="2" fill="none"/>
  <!-- Hollow mouth (jagged bark crack) -->
  <path d="M28 42 Q34 40 40 42 Q46 40 52 42 Q48 46 40 48 Q32 46 28 42 Z" fill="#1c0a00"/>
  <!-- Bark teeth (broken trunk jagged) -->
  <polygon points="32,42 33,46 34,42" fill="#92400e"/>
  <polygon points="37,42 38,47 39,42" fill="#92400e"/>
  <polygon points="41,42 42,47 43,42" fill="#92400e"/>
  <polygon points="46,42 47,46 48,42" fill="#92400e"/>
  <!-- Canopy leaves at very top (distant foliage) -->
  <ellipse cx="40" cy="14" rx="16" ry="10" fill="url(#canopy)" opacity="0.7"/>
  <ellipse cx="28" cy="16" rx="10" ry="7" fill="url(#canopy)" opacity="0.6"/>
  <ellipse cx="52" cy="16" rx="10" ry="7" fill="url(#canopy)" opacity="0.6"/>
</svg>
