<svg xmlns="http://www.w3.org/2000/svg" viewBox="0 0 80 80">
  <defs>
    <linearGradient id="cg_cover" x1="0%" y1="0%" x2="100%" y2="100%">
      <stop offset="0%" stop-color="#78350f"/>
      <stop offset="100%" stop-color="#451a03"/>
    </linearGradient>
    <linearGradient id="cg_trim" x1="0%" y1="0%" x2="100%" y2="0%">
      <stop offset="0%" stop-color="#f59e0b"/>
      <stop offset="100%" stop-color="#fcd34d"/>
    </linearGradient>
    <linearGradient id="cg_pages" x1="0%" y1="0%" x2="100%" y2="0%">
      <stop offset="0%" stop-color="#fef9e7"/>
      <stop offset="100%" stop-color="#e8ddb8"/>
    </linearGradient>
    <radialGradient id="cg_aura" cx="50%" cy="42%" r="55%">
      <stop offset="0%" stop-color="#f59e0b" stop-opacity="0.22"/>
      <stop offset="100%" stop-color="#f59e0b" stop-opacity="0"/>
    </radialGradient>
  </defs>
  <ellipse cx="40" cy="43" rx="34" ry="33" fill="url(#cg_aura)"/>
  <rect x="19" y="62" width="14" height="16" rx="2" fill="#5b2b0f"/>
  <rect x="47" y="62" width="14" height="16" rx="2" fill="#5b2b0f"/>
  <rect x="19" y="66" width="14" height="3" fill="url(#cg_pages)" opacity="0.7"/>
  <rect x="47" y="66" width="14" height="3" fill="url(#cg_pages)" opacity="0.7"/>
  <rect x="10" y="20" width="60" height="44" rx="4" fill="url(#cg_cover)"/>
  <rect x="12" y="22" width="56" height="40" rx="3" fill="none" stroke="url(#cg_trim)" stroke-width="2"/>
  <rect x="61" y="22" width="7" height="40" rx="1" fill="url(#cg_pages)"/>
  <line x1="62" y1="26" x2="67" y2="26" stroke="#d4c89a" stroke-width="0.7"/>
  <line x1="62" y1="30" x2="67" y2="30" stroke="#d4c89a" stroke-width="0.7"/>
  <line x1="62" y1="34" x2="67" y2="34" stroke="#d4c89a" stroke-width="0.7"/>
  <line x1="62" y1="38" x2="67" y2="38" stroke="#d4c89a" stroke-width="0.7"/>
  <line x1="62" y1="42" x2="67" y2="42" stroke="#d4c89a" stroke-width="0.7"/>
  <line x1="62" y1="46" x2="67" y2="46" stroke="#d4c89a" stroke-width="0.7"/>
  <line x1="62" y1="50" x2="67" y2="50" stroke="#d4c89a" stroke-width="0.7"/>
  <line x1="62" y1="54" x2="67" y2="54" stroke="#d4c89a" stroke-width="0.7"/>
  <line x1="62" y1="58" x2="67" y2="58" stroke="#d4c89a" stroke-width="0.7"/>
  <rect x="10" y="20" width="9" height="44" rx="2" fill="#92400e"/>
  <circle cx="40" cy="42" r="13" fill="#1c1409" opacity="0.72"/>
  <circle cx="40" cy="42" r="16" fill="none" stroke="#f59e0b" stroke-width="1.3"/>
  <circle cx="40" cy="42" r="8" fill="none" stroke="#f59e0b" stroke-width="1"/>
  <ellipse cx="34" cy="41" rx="4.8" ry="3.6" fill="#dc2626"/>
  <ellipse cx="46" cy="41" rx="4.8" ry="3.6" fill="#dc2626"/>
  <ellipse cx="34" cy="41" rx="2.2" ry="1.8" fill="#7f1d1d"/>
  <ellipse cx="46" cy="41" rx="2.2" ry="1.8" fill="#7f1d1d"/>
  <path d="M32 48 Q40 53 48 48" stroke="#dc2626" stroke-width="1.8" fill="none" stroke-linecap="round"/>
  <rect x="0" y="30" width="14" height="22" rx="2" fill="url(#cg_cover)" transform="rotate(-14 7 41)"/>
  <rect x="66" y="30" width="14" height="22" rx="2" fill="url(#cg_cover)" transform="rotate(14 73 41)"/>
  <rect x="22" y="4" width="36" height="16" rx="3" fill="url(#cg_cover)"/>
  <rect x="24" y="6" width="32" height="12" rx="1" fill="none" stroke="#f59e0b" stroke-width="1"/>
  <path d="M30 12 L35 9 L40 12 L45 9 L50 12" stroke="#f59e0b" stroke-width="1.1" fill="none" stroke-linecap="round"/>
</svg>
