<svg xmlns="http://www.w3.org/2000/svg" viewBox="0 0 80 80">
  <defs>
    <radialGradient id="aura" cx="50%" cy="45%" r="55%">
      <stop offset="0%" stop-color="#bfdbfe" stop-opacity="0.34"/>
      <stop offset="100%" stop-color="#bfdbfe" stop-opacity="0"/>
    </radialGradient>
    <linearGradient id="body" x1="0%" y1="0%" x2="100%" y2="100%">
      <stop offset="0%" stop-color="#2563eb"/>
      <stop offset="100%" stop-color="#1d4ed8"/>
    </linearGradient>
  </defs>
  <ellipse cx="40" cy="43" rx="33" ry="31" fill="url(#aura)"/>
  
<path d="M18 78 L15 45 Q20 39 40 38 Q60 39 65 45 L62 78 Z" fill="url(#body)"/>
<path d="M18 78 L22 60 L40 64 L58 60 L62 78" stroke="#93c5fd" stroke-width="1.3" fill="none"/>
<rect x="27" y="25" width="26" height="15" rx="4" fill="#1d4ed8"/>
<path d="M27 30 Q40 24 53 30" stroke="#93c5fd" stroke-width="1.6" fill="none"/>
<path d="M27 31 L11 47 L15 52 L31 39" fill="#2563eb"/>
<path d="M53 31 L69 47 L65 52 L49 39" fill="#2563eb"/>
<circle cx="12" cy="52" r="7" fill="#93c5fd" opacity="0.75"/><circle cx="10" cy="50" r="2" fill="#fff" opacity="0.45"/>

<ellipse cx="40" cy="16" rx="12" ry="11" fill="#172554"/><ellipse cx="35" cy="16" rx="3.5" ry="2.8" fill="#93c5fd"/><ellipse cx="45" cy="16" rx="3.5" ry="2.8" fill="#93c5fd"/><path d="M34 22 Q40 26 46 22" stroke="#93c5fd" stroke-width="1.3" fill="none" stroke-linecap="round"/>

  
</svg>
