<svg xmlns="http://www.w3.org/2000/svg" viewBox="0 0 80 80">
  <defs>
    <radialGradient id="aura" cx="50%" cy="45%" r="55%">
      <stop offset="0%" stop-color="#fde68a" stop-opacity="0.34"/>
      <stop offset="100%" stop-color="#fde68a" stop-opacity="0"/>
    </radialGradient>
    <linearGradient id="body" x1="0%" y1="0%" x2="100%" y2="100%">
      <stop offset="0%" stop-color="#9a3412"/>
      <stop offset="100%" stop-color="#7c2d12"/>
    </linearGradient>
  </defs>
  <ellipse cx="40" cy="43" rx="33" ry="31" fill="url(#aura)"/>
  
<path d="M60 69 Q73 61 69 47 Q65 35 53 35 Q42 35 39 43 Q36 51 44 57 Q51 62 55 56" stroke="#9a3412" stroke-width="12" fill="none" stroke-linecap="round"/>
<path d="M25 53 Q16 35 24 15" stroke="#9a3412" stroke-width="10" fill="none" stroke-linecap="round"/>
<path d="M35 54 Q31 34 35 15" stroke="#9a3412" stroke-width="10" fill="none" stroke-linecap="round"/>
<path d="M45 54 Q47 34 55 15" stroke="#9a3412" stroke-width="10" fill="none" stroke-linecap="round"/>
<path d="M55 54 Q63 35 68 17" stroke="#9a3412" stroke-width="10" fill="none" stroke-linecap="round"/>
<ellipse cx="24" cy="12" rx="8" ry="6" fill="#7c2d12"/><ellipse cx="35" cy="11" rx="8" ry="6" fill="#7c2d12"/><ellipse cx="55" cy="11" rx="8" ry="6" fill="#7c2d12"/><ellipse cx="68" cy="14" rx="8" ry="6" fill="#7c2d12"/>
<circle cx="22" cy="11" r="2" fill="#fbbf24"/><circle cx="33" cy="10" r="2" fill="#fbbf24"/><circle cx="53" cy="10" r="2" fill="#fbbf24"/><circle cx="66" cy="13" r="2" fill="#fbbf24"/>
  
</svg>
