<svg xmlns="http://www.w3.org/2000/svg" viewBox="0 0 80 80">
  <defs>
    <linearGradient id="fur" x1="0%" y1="0%" x2="100%" y2="100%">
      <stop offset="0%" stop-color="#a37c45"/>
      <stop offset="100%" stop-color="#6b4c1e"/>
    </linearGradient>
    <radialGradient id="glow" cx="50%" cy="50%" r="50%">
      <stop offset="0%" stop-color="#92400e" stop-opacity="0.2"/>
      <stop offset="100%" stop-color="#92400e" stop-opacity="0"/>
    </radialGradient>
  </defs>
  <ellipse cx="40" cy="44" rx="32" ry="28" fill="url(#glow)"/>
  <ellipse cx="40" cy="63" rx="25" ry="13" fill="#6b4c1e"/>
  <ellipse cx="19" cy="70" rx="10" ry="5" fill="#5c3a10"/>
  <ellipse cx="61" cy="70" rx="10" ry="5" fill="#5c3a10"/>
  <!-- Sloped hind (hyena silhouette) -->
  <ellipse cx="54" cy="58" rx="16" ry="9" fill="#5c3a10"/>
  <rect x="28" y="48" width="24" height="17" rx="4" fill="url(#fur)"/>
  <ellipse cx="38" cy="30" rx="22" ry="18" fill="url(#fur)"/>
  <!-- Rounded hyena ears -->
  <circle cx="22" cy="16" r="10" fill="#6b4c1e"/>
  <circle cx="22" cy="16" r="7" fill="#8a6030" opacity="0.9"/>
  <circle cx="54" cy="16" r="10" fill="#6b4c1e"/>
  <circle cx="54" cy="16" r="7" fill="#8a6030" opacity="0.9"/>
  <!-- Spots on coat -->
  <circle cx="26" cy="54" r="4.5" fill="#3d220a" opacity="0.55"/>
  <circle cx="50" cy="58" r="3.5" fill="#3d220a" opacity="0.5"/>
  <circle cx="16" cy="48" r="3.5" fill="#3d220a" opacity="0.45"/>
  <circle cx="60" cy="52" r="3" fill="#3d220a" opacity="0.45"/>
  <circle cx="36" cy="60" r="3" fill="#3d220a" opacity="0.5"/>
  <!-- Wide powerful snout -->
  <ellipse cx="38" cy="38" rx="15" ry="10" fill="#8a6030"/>
  <ellipse cx="38" cy="31" rx="7" ry="5" fill="#4a2c0a"/>
  <!-- Grin -->
  <path d="M24 40 Q38 46 52 40" fill="#2d1500" stroke="#2d1500" stroke-width="0.5"/>
  <polygon points="30,40 29,47 33,40" fill="#fef9e7"/>
  <polygon points="41,40 40,47 43,40" fill="#fef9e7"/>
  <!-- Eyes (yellow slit-pupil predator) -->
  <ellipse cx="29" cy="26" rx="7" ry="5.5" fill="#ca8a04"/>
  <ellipse cx="47" cy="26" rx="7" ry="5.5" fill="#ca8a04"/>
  <ellipse cx="29" cy="26" rx="3" ry="5" fill="#1c1917"/>
  <ellipse cx="47" cy="26" rx="3" ry="5" fill="#1c1917"/>
  <circle cx="30" cy="24" r="1.1" fill="white" opacity="0.7"/>
  <circle cx="48" cy="24" r="1.1" fill="white" opacity="0.7"/>
</svg>
