<svg xmlns="http://www.w3.org/2000/svg" viewBox="0 0 80 80">
  <defs>
    <radialGradient id="aura" cx="50%" cy="45%" r="55%">
      <stop offset="0%" stop-color="#fdba74" stop-opacity="0.34"/>
      <stop offset="100%" stop-color="#fdba74" stop-opacity="0"/>
    </radialGradient>
    <linearGradient id="body" x1="0%" y1="0%" x2="100%" y2="100%">
      <stop offset="0%" stop-color="#991b1b"/>
      <stop offset="100%" stop-color="#7f1d1d"/>
    </linearGradient>
  </defs>
  <ellipse cx="40" cy="43" rx="33" ry="31" fill="url(#aura)"/>
  
<rect x="24" y="58" width="10" height="18" rx="2" fill="#450a0a"/>
<rect x="46" y="58" width="10" height="18" rx="2" fill="#450a0a"/>
<rect x="20" y="30" width="40" height="30" rx="4" fill="url(#body)"/>
<rect x="23" y="33" width="34" height="24" rx="3" fill="#450a0a" opacity="0.35"/>

<circle cx="40" cy="16" r="12" fill="url(#body)"/>
<ellipse cx="35" cy="15" rx="3.6" ry="3" fill="#f97316"/>
<ellipse cx="45" cy="15" rx="3.6" ry="3" fill="#f97316"/>
<rect x="33" y="22" width="14" height="3" rx="1.5" fill="#450a0a"/>

<rect x="62" y="20" width="4" height="33" rx="1.5" fill="#e2e8f0"/><rect x="58" y="31" width="12" height="3" rx="1" fill="#94a3b8"/>
<path d="M31 8 L34 4 L37 8 M43 8 L46 4 L49 8" stroke="#7f1d1d" stroke-width="2" stroke-linecap="round"/>
<circle cx="35" cy="15" r="1" fill="#450a0a"/><circle cx="45" cy="15" r="1" fill="#450a0a"/>
  
</svg>
