<svg xmlns="http://www.w3.org/2000/svg" viewBox="0 0 80 80">
  <defs>
    <radialGradient id="aura" cx="50%" cy="45%" r="55%">
      <stop offset="0%" stop-color="#fde68a" stop-opacity="0.34"/>
      <stop offset="100%" stop-color="#fde68a" stop-opacity="0"/>
    </radialGradient>
    <linearGradient id="body" x1="0%" y1="0%" x2="100%" y2="100%">
      <stop offset="0%" stop-color="#9a3412"/>
      <stop offset="100%" stop-color="#7c2d12"/>
    </linearGradient>
  </defs>
  <ellipse cx="40" cy="43" rx="33" ry="31" fill="url(#aura)"/>
  
<path d="M58 66 Q70 59 67 46 Q64 34 53 34 Q43 34 40 42 Q37 50 44 55 Q50 59 53 53" stroke="#9a3412" stroke-width="10" fill="none" stroke-linecap="round"/>
<path d="M30 49 Q24 34 30 20" stroke="#9a3412" stroke-width="9" fill="none" stroke-linecap="round"/>
<path d="M39 50 Q36 35 41 21" stroke="#9a3412" stroke-width="9" fill="none" stroke-linecap="round"/>
<path d="M48 50 Q50 35 56 21" stroke="#9a3412" stroke-width="9" fill="none" stroke-linecap="round"/>
<ellipse cx="30" cy="17" rx="7" ry="5" fill="#7c2d12"/><ellipse cx="41" cy="18" rx="7" ry="5" fill="#7c2d12"/><ellipse cx="56" cy="18" rx="7" ry="5" fill="#7c2d12"/>
<circle cx="28" cy="16" r="1.6" fill="#fbbf24"/><circle cx="40" cy="17" r="1.6" fill="#fbbf24"/><circle cx="54" cy="17" r="1.6" fill="#fbbf24"/>
  
</svg>
