<svg xmlns="http://www.w3.org/2000/svg" viewBox="0 0 80 80">
  <defs>
    <radialGradient id="aura" cx="50%" cy="45%" r="55%">
      <stop offset="0%" stop-color="#fde68a" stop-opacity="0.34"/>
      <stop offset="100%" stop-color="#fde68a" stop-opacity="0"/>
    </radialGradient>
    <linearGradient id="body" x1="0%" y1="0%" x2="100%" y2="100%">
      <stop offset="0%" stop-color="#9a3412"/>
      <stop offset="100%" stop-color="#7c2d12"/>
    </linearGradient>
  </defs>
  <ellipse cx="40" cy="43" rx="33" ry="31" fill="url(#aura)"/>
  
<path d="M20 78 L17 46 Q22 40 40 39 Q58 40 63 46 L60 78 Z" fill="url(#body)"/>
<ellipse cx="40" cy="18" rx="11" ry="10" fill="#431407"/>
<ellipse cx="35" cy="18" rx="3.4" ry="2.8" fill="#fbbf24"/><ellipse cx="45" cy="18" rx="3.4" ry="2.8" fill="#fbbf24"/>
<path d="M34 24 Q40 28 46 24" stroke="#fbbf24" stroke-width="1.2" fill="none" stroke-linecap="round"/>
<path d="M24 15 Q18 8 12 10" stroke="#9a3412" stroke-width="4" fill="none" stroke-linecap="round"/>
<path d="M27 10 Q23 4 18 5" stroke="#9a3412" stroke-width="4" fill="none" stroke-linecap="round"/>
<path d="M32 8 Q31 2 36 2" stroke="#9a3412" stroke-width="4" fill="none" stroke-linecap="round"/>
<path d="M48 8 Q50 2 55 3" stroke="#9a3412" stroke-width="4" fill="none" stroke-linecap="round"/>
<path d="M53 12 Q58 5 64 7" stroke="#9a3412" stroke-width="4" fill="none" stroke-linecap="round"/>
<path d="M56 18 Q63 13 68 16" stroke="#9a3412" stroke-width="4" fill="none" stroke-linecap="round"/>
<circle cx="12" cy="10" r="1.4" fill="#fbbf24"/><circle cx="18" cy="5" r="1.4" fill="#fbbf24"/><circle cx="36" cy="2" r="1.4" fill="#fbbf24"/><circle cx="55" cy="3" r="1.4" fill="#fbbf24"/><circle cx="64" cy="7" r="1.4" fill="#fbbf24"/><circle cx="68" cy="16" r="1.4" fill="#fbbf24"/>
<path d="M30 52 Q40 46 50 52" stroke="#fbbf24" stroke-width="1.2" fill="none"/>
  
</svg>
