<svg xmlns="http://www.w3.org/2000/svg" viewBox="0 0 80 80">
  <defs>
    <radialGradient id="aura" cx="50%" cy="45%" r="55%">
      <stop offset="0%" stop-color="#99f6e4" stop-opacity="0.34"/>
      <stop offset="100%" stop-color="#99f6e4" stop-opacity="0"/>
    </radialGradient>
    <linearGradient id="body" x1="0%" y1="0%" x2="100%" y2="100%">
      <stop offset="0%" stop-color="#0f766e"/>
      <stop offset="100%" stop-color="#115e59"/>
    </linearGradient>
  </defs>
  <ellipse cx="40" cy="43" rx="33" ry="31" fill="url(#aura)"/>
  
<ellipse cx="40" cy="40" rx="11" ry="13" fill="url(#body)"/>
<ellipse cx="40" cy="26" rx="9" ry="8" fill="#115e59"/>
<ellipse cx="40" cy="54" rx="13" ry="10" fill="#115e59"/>
<path d="M32 24 L27 14" stroke="#0f766e" stroke-width="2"/><path d="M48 24 L53 14" stroke="#0f766e" stroke-width="2"/>
<line x1="29" y1="35" x2="16" y2="28" stroke="#0f766e" stroke-width="2" stroke-linecap="round"/>
<line x1="29" y1="43" x2="14" y2="43" stroke="#0f766e" stroke-width="2" stroke-linecap="round"/>
<line x1="29" y1="51" x2="16" y2="58" stroke="#0f766e" stroke-width="2" stroke-linecap="round"/>
<line x1="51" y1="35" x2="64" y2="28" stroke="#0f766e" stroke-width="2" stroke-linecap="round"/>
<line x1="51" y1="43" x2="66" y2="43" stroke="#0f766e" stroke-width="2" stroke-linecap="round"/>
<line x1="51" y1="51" x2="64" y2="58" stroke="#0f766e" stroke-width="2" stroke-linecap="round"/>
<ellipse cx="36" cy="25" rx="3.2" ry="2.6" fill="#5eead4"/><ellipse cx="44" cy="25" rx="3.2" ry="2.6" fill="#5eead4"/>
  
</svg>
