<svg xmlns="http://www.w3.org/2000/svg" viewBox="0 0 80 80">
  <defs>
    <linearGradient id="fur" x1="0%" y1="0%" x2="100%" y2="100%">
      <stop offset="0%" stop-color="#44403c"/>
      <stop offset="100%" stop-color="#1c1917"/>
    </linearGradient>
    <radialGradient id="magic" cx="50%" cy="40%" r="55%">
      <stop offset="0%" stop-color="#818cf8" stop-opacity="0.4"/>
      <stop offset="100%" stop-color="#818cf8" stop-opacity="0"/>
    </radialGradient>
  </defs>
  <!-- Runic magic aura -->
  <ellipse cx="40" cy="40" rx="36" ry="36" fill="url(#magic)"/>
  <!-- Floating rune stones -->
  <rect x="8" y="28" width="8" height="8" rx="1" fill="#312e81" opacity="0.7"/>
  <path d="M10 30 L12 34 L14 30 M11 32 L13 32" stroke="#818cf8" stroke-width="1" fill="none"/>
  <rect x="64" y="28" width="8" height="8" rx="1" fill="#312e81" opacity="0.7"/>
  <path d="M66 30 L68 34 L70 30 M67 32 L69 32" stroke="#818cf8" stroke-width="1" fill="none"/>
  <rect x="12" y="52" width="6" height="6" rx="1" fill="#312e81" opacity="0.5"/>
  <rect x="62" y="52" width="6" height="6" rx="1" fill="#312e81" opacity="0.5"/>
  <!-- Fur cloak / robe -->
  <path d="M16 40 L12 76 Q26 80 40 78 Q54 80 68 76 L64 40 Z" fill="url(#fur)"/>
  <!-- Fur texture -->
  <line x1="24" y1="48" x2="22" y2="60" stroke="#1c1917" stroke-width="1.5" opacity="0.5"/>
  <line x1="30" y1="50" x2="29" y2="64" stroke="#1c1917" stroke-width="1.5" opacity="0.5"/>
  <line x1="40" y1="52" x2="40" y2="68" stroke="#1c1917" stroke-width="1.5" opacity="0.5"/>
  <line x1="50" y1="50" x2="51" y2="64" stroke="#1c1917" stroke-width="1.5" opacity="0.5"/>
  <line x1="56" y1="48" x2="58" y2="60" stroke="#1c1917" stroke-width="1.5" opacity="0.5"/>
  <!-- Arms in robe -->
  <path d="M18 42 Q8 50 6 60" stroke="#44403c" stroke-width="7" fill="none" stroke-linecap="round"/>
  <path d="M62 42 Q72 50 74 60" stroke="#44403c" stroke-width="7" fill="none" stroke-linecap="round"/>
  <!-- Left hand (raised, casting) -->
  <circle cx="6" cy="62" r="4" fill="#8b6843"/>
  <!-- Runic staff (right) -->
  <line x1="74" y1="16" x2="74" y2="68" stroke="#78350f" stroke-width="3" stroke-linecap="round"/>
  <!-- Staff top with rune stone -->
  <rect x="68" y="10" width="12" height="10" rx="2" fill="#312e81"/>
  <path d="M70 12 L74 18 L78 12 M72 15 L76 15" stroke="#818cf8" stroke-width="1.5" fill="none"/>
  <!-- Glowing rune below staff crystal -->
  <ellipse cx="74" cy="22" rx="4" ry="2" fill="#818cf8" opacity="0.5"/>
  <!-- Antler/bone headdress -->
  <path d="M30 18 Q22 10 18 4 Q22 12 26 18" stroke="#44403c" stroke-width="3" fill="none" stroke-linecap="round"/>
  <path d="M26 16 Q18 10 16 6 Q20 12 24 16" stroke="#1c1917" stroke-width="2" fill="none"/>
  <path d="M50 18 Q58 10 62 4 Q58 12 54 18" stroke="#44403c" stroke-width="3" fill="none" stroke-linecap="round"/>
  <path d="M54 16 Q62 10 64 6 Q60 12 56 16" stroke="#1c1917" stroke-width="2" fill="none"/>
  <!-- Face (old, weathered) -->
  <circle cx="40" cy="28" r="13" fill="#8b6843"/>
  <!-- Wrinkles -->
  <path d="M30 24 Q34 22 38 24" stroke="#5a3a20" stroke-width="0.8" fill="none" opacity="0.5"/>
  <path d="M42 24 Q46 22 50 24" stroke="#5a3a20" stroke-width="0.8" fill="none" opacity="0.5"/>
  <!-- Wise eyes (glowing runic blue) -->
  <ellipse cx="34" cy="27" rx="4.5" ry="4" fill="#1c0a00"/>
  <ellipse cx="46" cy="27" rx="4.5" ry="4" fill="#1c0a00"/>
  <ellipse cx="34" cy="27" rx="2.5" ry="2.5" fill="#818cf8"/>
  <ellipse cx="46" cy="27" rx="2.5" ry="2.5" fill="#818cf8"/>
  <circle cx="35" cy="26" r="1" fill="white" opacity="0.9"/>
  <circle cx="47" cy="26" r="1" fill="white" opacity="0.9"/>
  <!-- Long white beard -->
  <path d="M30 32 Q32 40 40 46 Q48 40 50 32" fill="#d4d8e0"/>
  <line x1="34" y1="34" x2="34" y2="44" stroke="#9ca3af" stroke-width="1" opacity="0.5"/>
  <line x1="38" y1="34" x2="38" y2="46" stroke="#9ca3af" stroke-width="1" opacity="0.5"/>
  <line x1="42" y1="34" x2="42" y2="46" stroke="#9ca3af" stroke-width="1" opacity="0.5"/>
  <line x1="46" y1="34" x2="46" y2="44" stroke="#9ca3af" stroke-width="1" opacity="0.5"/>
  <!-- Rune painted on face -->
  <path d="M38 22 L40 25 L42 22 M39 23.5 L41 23.5" stroke="#818cf8" stroke-width="1" fill="none"/>
</svg>
