<svg xmlns="http://www.w3.org/2000/svg" viewBox="0 0 80 80">
  <defs>
    <radialGradient id="aura" cx="50%" cy="45%" r="55%">
      <stop offset="0%" stop-color="#fde047" stop-opacity="0.34"/>
      <stop offset="100%" stop-color="#fde047" stop-opacity="0"/>
    </radialGradient>
    <linearGradient id="body" x1="0%" y1="0%" x2="100%" y2="100%">
      <stop offset="0%" stop-color="#a16207"/>
      <stop offset="100%" stop-color="#854d0e"/>
    </linearGradient>
  </defs>
  <ellipse cx="40" cy="43" rx="33" ry="31" fill="url(#aura)"/>
  
<rect x="24" y="58" width="10" height="18" rx="2" fill="#422006"/>
<rect x="46" y="58" width="10" height="18" rx="2" fill="#422006"/>
<rect x="20" y="30" width="40" height="30" rx="4" fill="url(#body)"/>
<rect x="23" y="33" width="34" height="24" rx="3" fill="#422006" opacity="0.35"/>

<circle cx="40" cy="16" r="12" fill="url(#body)"/>
<ellipse cx="35" cy="15" rx="3.6" ry="3" fill="#facc15"/>
<ellipse cx="45" cy="15" rx="3.6" ry="3" fill="#facc15"/>
<rect x="33" y="22" width="14" height="3" rx="1.5" fill="#422006"/>

<path d="M63 23 Q70 31 64 39 Q61 42 58 38 Q63 34 61 28 Z" fill="#fef3c7"/><rect x="60" y="38" width="4" height="13" rx="1" fill="#7c2d12"/><circle cx="40" cy="16" r="14" fill="#854d0e" opacity="0.45"/>
  
</svg>
