<svg xmlns="http://www.w3.org/2000/svg" viewBox="0 0 80 80">
  <defs>
    <radialGradient id="aura" cx="50%" cy="45%" r="55%">
      <stop offset="0%" stop-color="#99f6e4" stop-opacity="0.34"/>
      <stop offset="100%" stop-color="#99f6e4" stop-opacity="0"/>
    </radialGradient>
    <linearGradient id="body" x1="0%" y1="0%" x2="100%" y2="100%">
      <stop offset="0%" stop-color="#0f766e"/>
      <stop offset="100%" stop-color="#115e59"/>
    </linearGradient>
  </defs>
  <ellipse cx="40" cy="43" rx="33" ry="31" fill="url(#aura)"/>
  
<path d="M20 20 Q40 8 60 20 Q68 30 64 44 Q60 60 40 68 Q20 60 16 44 Q12 30 20 20 Z" fill="url(#body)"/>
<ellipse cx="40" cy="37" rx="14" ry="10" fill="#022c22" opacity="0.76"/>
<ellipse cx="40" cy="35" rx="8" ry="7" fill="#5eead4"/><ellipse cx="40" cy="35" rx="3" ry="5" fill="#022c22"/>
<path d="M27 56 Q31 49 35 56" stroke="#115e59" stroke-width="2.4" fill="none" stroke-linecap="round"/><path d="M35 60 Q40 52 45 60" stroke="#115e59" stroke-width="2.4" fill="none" stroke-linecap="round"/><path d="M45 56 Q49 49 53 56" stroke="#115e59" stroke-width="2.4" fill="none" stroke-linecap="round"/>
<circle cx="26" cy="41" r="2.5" fill="#5eead4" opacity="0.7"/>
<circle cx="54" cy="41" r="2.5" fill="#5eead4" opacity="0.7"/>
  <path d="M28 14 L31 8 L36 13 L40 6 L44 13 L49 8 L52 14" fill="none" stroke="#5eead4" stroke-width="1.8" stroke-linecap="round"/><circle cx="40" cy="42" r="24" fill="none" stroke="#5eead4" stroke-opacity="0.3" stroke-width="1.1"/>
</svg>
