<svg xmlns="http://www.w3.org/2000/svg" viewBox="0 0 80 80">
  <defs>
    <radialGradient id="aura" cx="50%" cy="45%" r="55%">
      <stop offset="0%" stop-color="#fdba74" stop-opacity="0.34"/>
      <stop offset="100%" stop-color="#fdba74" stop-opacity="0"/>
    </radialGradient>
    <linearGradient id="body" x1="0%" y1="0%" x2="100%" y2="100%">
      <stop offset="0%" stop-color="#991b1b"/>
      <stop offset="100%" stop-color="#7f1d1d"/>
    </linearGradient>
  </defs>
  <ellipse cx="40" cy="43" rx="33" ry="31" fill="url(#aura)"/>
  
<rect x="15" y="18" width="50" height="44" rx="4" fill="url(#body)"/><rect x="19" y="22" width="42" height="36" rx="3" fill="#450a0a" opacity="0.32"/>
<rect x="22" y="60" width="14" height="17" rx="2" fill="#450a0a"/>
<rect x="44" y="60" width="14" height="17" rx="2" fill="#450a0a"/>
<line x1="24" y1="26" x2="33" y2="34" stroke="#450a0a" stroke-width="1.1"/><line x1="50" y1="24" x2="44" y2="31" stroke="#450a0a" stroke-width="1.1"/>
<line x1="40" y1="38" x2="48" y2="47" stroke="#450a0a" stroke-width="1.1"/>
<circle cx="34" cy="36" r="4.2" fill="#f97316"/>
<circle cx="46" cy="36" r="4.2" fill="#f97316"/>
<rect x="32" y="45" width="16" height="3" rx="1.5" fill="#450a0a"/>
<path d="M32 28 L40 20 L48 28 L48 40 L40 48 L32 40 Z" fill="none" stroke="#f97316" stroke-width="1.2"/>

  
</svg>
