<svg xmlns="http://www.w3.org/2000/svg" viewBox="0 0 80 80">
  <defs>
    <radialGradient id="aura" cx="50%" cy="45%" r="55%">
      <stop offset="0%" stop-color="#fdba74" stop-opacity="0.34"/>
      <stop offset="100%" stop-color="#fdba74" stop-opacity="0"/>
    </radialGradient>
    <linearGradient id="body" x1="0%" y1="0%" x2="100%" y2="100%">
      <stop offset="0%" stop-color="#b45309"/>
      <stop offset="100%" stop-color="#92400e"/>
    </linearGradient>
  </defs>
  <ellipse cx="40" cy="43" rx="33" ry="31" fill="url(#aura)"/>
  
<path d="M20 20 Q40 8 60 20 Q68 30 64 44 Q60 60 40 68 Q20 60 16 44 Q12 30 20 20 Z" fill="url(#body)"/>
<ellipse cx="40" cy="37" rx="14" ry="10" fill="#451a03" opacity="0.76"/>
<circle cx="34" cy="35" r="3.2" fill="#fb923c"/><circle cx="46" cy="35" r="3.2" fill="#fb923c"/>
<path d="M27 56 Q31 49 35 56" stroke="#92400e" stroke-width="2.4" fill="none" stroke-linecap="round"/><path d="M35 60 Q40 52 45 60" stroke="#92400e" stroke-width="2.4" fill="none" stroke-linecap="round"/><path d="M45 56 Q49 49 53 56" stroke="#92400e" stroke-width="2.4" fill="none" stroke-linecap="round"/>
<circle cx="26" cy="41" r="2.5" fill="#fb923c" opacity="0.7"/>
<circle cx="54" cy="41" r="2.5" fill="#fb923c" opacity="0.7"/>
  
</svg>
