<svg xmlns="http://www.w3.org/2000/svg" viewBox="0 0 80 80">
  <defs>
    <linearGradient id="scale" x1="0%" y1="0%" x2="100%" y2="100%">
      <stop offset="0%" stop-color="#065f46"/>
      <stop offset="100%" stop-color="#022c22"/>
    </linearGradient>
    <linearGradient id="belly" x1="0%" y1="0%" x2="100%" y2="0%">
      <stop offset="0%" stop-color="#6ee7b7"/>
      <stop offset="100%" stop-color="#34d399"/>
    </linearGradient>
  </defs>
  <!-- Coiled body tail -->
  <path d="M60 70 Q72 65 70 50 Q68 38 56 36 Q44 34 40 44 Q36 54 44 60 Q52 66 56 58 Q60 50 52 48 Q46 46 46 52" stroke="#065f46" stroke-width="12" fill="none" stroke-linecap="round"/>
  <!-- Belly stripe on tail -->
  <path d="M60 70 Q72 65 70 50 Q68 38 56 36 Q44 34 40 44 Q36 54 44 60 Q52 66 56 58 Q60 50 52 48 Q46 46 46 52" stroke="#10b981" stroke-width="5" fill="none" stroke-linecap="round" opacity="0.5"/>
  <!-- Neck -->
  <path d="M20 30 Q10 20 14 10" stroke="#065f46" stroke-width="14" fill="none" stroke-linecap="round"/>
  <!-- Head -->
  <ellipse cx="14" cy="8" rx="12" ry="9" fill="#065f46" transform="rotate(-30 14 8)"/>
  <!-- Snout -->
  <path d="M6 4 Q2 6 4 10" fill="#065f46"/>
  <!-- Fangs -->
  <path d="M6 8 L2 14 L7 10" fill="#e5e7eb"/>
  <path d="M10 10 L8 16 L13 11" fill="#e5e7eb"/>
  <!-- Eyes -->
  <ellipse cx="16" cy="4" rx="4" ry="4" fill="#fbbf24"/>
  <ellipse cx="16" cy="4" rx="2" ry="3" fill="#422006"/>
  <circle cx="16" cy="3" r="1" fill="white" opacity="0.7"/>
  <!-- Forked tongue -->
  <path d="M4 8 Q0 6 -2 4 M4 8 Q0 8 -2 10" stroke="#dc2626" stroke-width="1.5" fill="none" stroke-linecap="round"/>
  <!-- Scale pattern dots on body -->
  <circle cx="50" cy="56" r="2" fill="#059669" opacity="0.6"/>
  <circle cx="58" cy="50" r="2" fill="#059669" opacity="0.6"/>
  <circle cx="62" cy="42" r="2" fill="#059669" opacity="0.6"/>
  <circle cx="55" cy="38" r="2" fill="#059669" opacity="0.6"/>
  <circle cx="44" cy="42" r="2" fill="#059669" opacity="0.6"/>
  <!-- Venom drip -->
  <path d="M6 14 Q5 20 7 22" stroke="#4ade80" stroke-width="2" fill="none" stroke-linecap="round"/>
  <circle cx="7" cy="23" r="2" fill="#4ade80" opacity="0.8"/>
</svg>
