<svg xmlns="http://www.w3.org/2000/svg" viewBox="0 0 80 80">
  <defs>
    <radialGradient id="fur" cx="45%" cy="36%" r="58%">
      <stop offset="0%" stop-color="#e2e8f0"/>
      <stop offset="100%" stop-color="#94a3b8"/>
    </radialGradient>
    <radialGradient id="mist" cx="50%" cy="80%" r="40%">
      <stop offset="0%" stop-color="#dbeafe" stop-opacity="0.35"/>
      <stop offset="100%" stop-color="#dbeafe" stop-opacity="0"/>
    </radialGradient>
  </defs>
  <ellipse cx="40" cy="42" rx="34" ry="32" fill="url(#mist)"/>
  <ellipse cx="40" cy="64" rx="26" ry="13" fill="#cbd5e1"/>
  <ellipse cx="19" cy="71" rx="10" ry="5" fill="#94a3b8"/>
  <ellipse cx="61" cy="71" rx="10" ry="5" fill="#94a3b8"/>
  <rect x="28" y="48" width="24" height="18" rx="5" fill="url(#fur)"/>
  <ellipse cx="40" cy="32" rx="23" ry="19" fill="url(#fur)"/>
  <polygon points="17,22 23,3 31,22" fill="#94a3b8"/>
  <polygon points="19,22 24,7 30,22" fill="#e2e8f0"/>
  <polygon points="49,22 57,3 63,22" fill="#94a3b8"/>
  <polygon points="51,22 56,7 62,22" fill="#e2e8f0"/>
  <ellipse cx="40" cy="42" rx="14" ry="9" fill="#cbd5e1"/>
  <ellipse cx="40" cy="35" rx="6" ry="4" fill="#94a3b8"/>
  <path d="M29 44 Q40 49 51 44" fill="none" stroke="#94a3b8" stroke-width="1.8" stroke-linecap="round"/>
  <polygon points="34,44 33,51 36,44" fill="#f8fafc"/>
  <polygon points="44,44 43,51 46,44" fill="#f8fafc"/>
  <ellipse cx="30" cy="27" rx="7" ry="5.5" fill="#bfdbfe"/>
  <ellipse cx="50" cy="27" rx="7" ry="5.5" fill="#bfdbfe"/>
  <circle cx="30" cy="27" r="3.5" fill="#1d4ed8"/>
  <circle cx="50" cy="27" r="3.5" fill="#1d4ed8"/>
  <circle cx="31" cy="26" r="1.4" fill="white" opacity="0.85"/>
  <circle cx="51" cy="26" r="1.4" fill="white" opacity="0.85"/>
  <circle cx="20" cy="38" r="2" fill="white" opacity="0.5"/>
  <circle cx="60" cy="36" r="1.5" fill="white" opacity="0.45"/>
  <circle cx="40" cy="60" r="1.8" fill="white" opacity="0.5"/>
  <circle cx="32" cy="56" r="1.2" fill="white" opacity="0.4"/>
  <circle cx="50" cy="58" r="1" fill="white" opacity="0.4"/>
</svg>
