<svg xmlns="http://www.w3.org/2000/svg" viewBox="0 0 800 450" preserveAspectRatio="xMidYMid slice">
  <defs>
    <linearGradient id="sky" x1="0%" y1="0%" x2="0%" y2="100%">
      <stop offset="0%" stop-color="#020510"/>
      <stop offset="60%" stop-color="#040820"/>
      <stop offset="100%" stop-color="#08112e"/>
    </linearGradient>
    <linearGradient id="snow" x1="0%" y1="0%" x2="0%" y2="100%">
      <stop offset="0%" stop-color="#0d1b3e"/>
      <stop offset="100%" stop-color="#040a1e"/>
    </linearGradient>
    <radialGradient id="fog" cx="50%" cy="70%" r="50%">
      <stop offset="0%" stop-color="#0f172a" stop-opacity="0.4"/>
      <stop offset="100%" stop-color="#0f172a" stop-opacity="0"/>
    </radialGradient>
    <radialGradient id="moon" cx="75%" cy="12%" r="12%">
      <stop offset="0%" stop-color="#dbeafe" stop-opacity="0.15"/>
      <stop offset="100%" stop-color="#dbeafe" stop-opacity="0"/>
    </radialGradient>
  </defs>
  <!-- Night sky -->
  <rect width="800" height="450" fill="url(#sky)"/>
  <!-- Moon glow -->
  <rect width="800" height="450" fill="url(#moon)"/>
  <!-- Moon disc -->
  <circle cx="600" cy="55" r="22" fill="#e2e8f0" opacity="0.08"/>
  <circle cx="600" cy="55" r="18" fill="#f1f5f9" opacity="0.06"/>
  <!-- Stars -->
  <circle cx="40" cy="25" r="1" fill="#e0f2fe" opacity="0.6"/>
  <circle cx="120" cy="10" r="0.8" fill="#e0f2fe" opacity="0.5"/>
  <circle cx="220" cy="35" r="1.2" fill="#e0f2fe" opacity="0.6"/>
  <circle cx="360" cy="8" r="0.9" fill="#e0f2fe" opacity="0.4"/>
  <circle cx="480" cy="22" r="1.1" fill="#e0f2fe" opacity="0.5"/>
  <circle cx="680" cy="30" r="0.8" fill="#e0f2fe" opacity="0.55"/>
  <circle cx="760" cy="12" r="1" fill="#e0f2fe" opacity="0.5"/>
  <!-- Bare tree silhouettes (left) -->
  <line x1="30" y1="300" x2="30" y2="80" stroke="#08111f" stroke-width="8"/>
  <line x1="30" y1="130" x2="0" y2="100" stroke="#08111f" stroke-width="3"/>
  <line x1="30" y1="155" x2="65" y2="120" stroke="#08111f" stroke-width="2.5"/>
  <line x1="30" y1="180" x2="-10" y2="158" stroke="#08111f" stroke-width="2"/>
  <line x1="30" y1="200" x2="70" y2="178" stroke="#08111f" stroke-width="2"/>
  <line x1="110" y1="300" x2="115" y2="100" stroke="#08111f" stroke-width="6"/>
  <line x1="113" y1="140" x2="80" y2="115" stroke="#08111f" stroke-width="2.5"/>
  <line x1="114" y1="170" x2="150" y2="148" stroke="#08111f" stroke-width="2"/>
  <line x1="113" y1="200" x2="78" y2="185" stroke="#08111f" stroke-width="1.8"/>
  <line x1="175" y1="300" x2="178" y2="130" stroke="#08111f" stroke-width="5"/>
  <line x1="177" y1="165" x2="148" y2="145" stroke="#08111f" stroke-width="2"/>
  <line x1="177" y1="195" x2="210" y2="175" stroke="#08111f" stroke-width="1.8"/>
  <line x1="220" y1="300" x2="222" y2="150" stroke="#08111f" stroke-width="4"/>
  <line x1="221" y1="175" x2="195" y2="158" stroke="#08111f" stroke-width="1.5"/>
  <line x1="221" y1="200" x2="248" y2="185" stroke="#08111f" stroke-width="1.5"/>
  <!-- Bare tree silhouettes (right - mirror) -->
  <line x1="770" y1="300" x2="770" y2="80" stroke="#08111f" stroke-width="8"/>
  <line x1="770" y1="130" x2="800" y2="100" stroke="#08111f" stroke-width="3"/>
  <line x1="770" y1="155" x2="735" y2="120" stroke="#08111f" stroke-width="2.5"/>
  <line x1="770" y1="180" x2="810" y2="158" stroke="#08111f" stroke-width="2"/>
  <line x1="770" y1="200" x2="730" y2="178" stroke="#08111f" stroke-width="2"/>
  <line x1="690" y1="300" x2="685" y2="100" stroke="#08111f" stroke-width="6"/>
  <line x1="687" y1="140" x2="720" y2="115" stroke="#08111f" stroke-width="2.5"/>
  <line x1="686" y1="170" x2="650" y2="148" stroke="#08111f" stroke-width="2"/>
  <line x1="687" y1="200" x2="722" y2="185" stroke="#08111f" stroke-width="1.8"/>
  <line x1="625" y1="300" x2="622" y2="130" stroke="#08111f" stroke-width="5"/>
  <line x1="623" y1="165" x2="652" y2="145" stroke="#08111f" stroke-width="2"/>
  <line x1="623" y1="195" x2="590" y2="175" stroke="#08111f" stroke-width="1.8"/>
  <line x1="580" y1="300" x2="578" y2="150" stroke="#08111f" stroke-width="4"/>
  <line x1="579" y1="175" x2="605" y2="158" stroke="#08111f" stroke-width="1.5"/>
  <line x1="579" y1="200" x2="552" y2="185" stroke="#08111f" stroke-width="1.5"/>
  <!-- Forest path archway -->
  <path d="M240 300 L250 100 Q400 60 550 100 L560 300 Z" fill="#010408" opacity="0.55"/>
  <path d="M255 300 L264 108 Q400 72 536 108 L545 300 Z" fill="none" stroke="#1e3a8a" stroke-width="1" opacity="0.35"/>
  <!-- Fog rolling in -->
  <rect width="800" height="450" fill="url(#fog)"/>
  <!-- Snow patches on ground -->
  <ellipse cx="50" cy="304" rx="40" ry="8" fill="#e0f2fe" opacity="0.06"/>
  <ellipse cx="200" cy="307" rx="55" ry="7" fill="#e0f2fe" opacity="0.05"/>
  <ellipse cx="620" cy="302" rx="50" ry="8" fill="#e0f2fe" opacity="0.06"/>
  <ellipse cx="760" cy="305" rx="35" ry="7" fill="#e0f2fe" opacity="0.05"/>
  <!-- Floating snowflakes -->
  <circle cx="100" cy="200" r="1.5" fill="#e0f2fe" opacity="0.3"/>
  <circle cx="250" cy="150" r="1" fill="#e0f2fe" opacity="0.25"/>
  <circle cx="450" cy="180" r="1.2" fill="#e0f2fe" opacity="0.28"/>
  <circle cx="650" cy="220" r="1" fill="#e0f2fe" opacity="0.3"/>
  <!-- Snow ground -->
  <rect x="0" y="300" width="800" height="150" fill="url(#snow)"/>
  <line x1="0" y1="300" x2="800" y2="300" stroke="#1e3a8a" stroke-width="1.5"/>
  <!-- Slavic star of Svarog on snow -->
  <circle cx="400" cy="340" r="50" fill="none" stroke="#1e3a8a" stroke-width="1.5" opacity="0.4"/>
  <circle cx="400" cy="340" r="35" fill="none" stroke="#1e3a8a" stroke-width="1" opacity="0.25"/>
  <line x1="400" y1="318" x2="400" y2="362" stroke="#3b82f6" stroke-width="1.5" opacity="0.4"/>
  <line x1="378" y1="340" x2="422" y2="340" stroke="#3b82f6" stroke-width="1.5" opacity="0.4"/>
  <line x1="384" y1="324" x2="416" y2="356" stroke="#3b82f6" stroke-width="1" opacity="0.35"/>
  <line x1="416" y1="324" x2="384" y2="356" stroke="#3b82f6" stroke-width="1" opacity="0.35"/>
</svg>
