<svg xmlns="http://www.w3.org/2000/svg" viewBox="0 0 80 80">
  <defs>
    <radialGradient id="ig" cx="40%" cy="40%" r="55%">
      <stop offset="0%" stop-color="#8b5cf6"/>
      <stop offset="100%" stop-color="#1e1b4b"/>
    </radialGradient>
    <radialGradient id="drop" cx="40%" cy="30%" r="60%">
      <stop offset="0%" stop-color="#a78bfa"/>
      <stop offset="100%" stop-color="#7c3aed"/>
    </radialGradient>
  </defs>
  <!-- Background glow -->
  <circle cx="40" cy="40" r="32" fill="url(#ig)" opacity="0.5"/>
  <!-- Ink splash waves -->
  <path d="M10 48 Q20 38 30 48 Q40 58 50 48 Q60 38 70 48" stroke="#7c3aed" stroke-width="3" fill="none" stroke-linecap="round"/>
  <path d="M14 56 Q24 46 34 56 Q44 66 54 56 Q64 46 74 56" stroke="#6d28d9" stroke-width="2" fill="none" stroke-linecap="round" opacity="0.6"/>
  <!-- Main ink drop -->
  <path d="M40 10 Q52 26 52 36 Q52 50 40 54 Q28 50 28 36 Q28 26 40 10 Z" fill="url(#drop)"/>
  <!-- Inner drop highlight -->
  <path d="M40 16 Q48 28 48 36 Q48 46 40 50 Q36 46 36 38 Q36 28 40 16 Z" fill="#c4b5fd" opacity="0.35"/>
  <!-- Sparkles / ink spatter -->
  <circle cx="20" cy="28" r="3" fill="#a78bfa" opacity="0.7"/>
  <circle cx="60" cy="24" r="2" fill="#c4b5fd" opacity="0.7"/>
  <circle cx="16" cy="38" r="2" fill="#7c3aed" opacity="0.8"/>
  <circle cx="64" cy="36" r="3" fill="#8b5cf6" opacity="0.7"/>
  <circle cx="22" cy="18" r="1.5" fill="#ddd6fe" opacity="0.8"/>
  <circle cx="58" cy="16" r="1.5" fill="#ddd6fe" opacity="0.8"/>
  <!-- ✦ rune glyph -->
  <text x="34" y="40" font-size="12" fill="white" opacity="0.9" font-family="serif">✦</text>
</svg>
